HIERARCHY
ROOT SpineBase
{
  OFFSET 0.000000 0.000000 0.000000
  CHANNELS 6 Xposition Yposition Zposition Zrotation Xrotation Yrotation
  JOINT SpineMid
  {
    OFFSET 0.000000 31.082789 0.000000
    CHANNELS 3 Zrotation Xrotation Yrotation
    JOINT SpineShoulder
    {
      OFFSET 0.194323 23.086127 -0.731816
      CHANNELS 3 Zrotation Xrotation Yrotation
      JOINT Neck
      {
        OFFSET 0.144649 7.638711 -0.560051
        CHANNELS 3 Zrotation Xrotation Yrotation
        JOINT Head
        {
          OFFSET 5.157505 13.591733 -1.016633
          CHANNELS 3 Zrotation Xrotation Yrotation
          End Site
          {
            OFFSET 0 0 0
          }
        }
      }
      JOINT ShoulderLeft
      {
        OFFSET -12.554429 -1.863784 -10.828740
        CHANNELS 3 Zrotation Xrotation Yrotation
        JOINT ElbowLeft
        {
          OFFSET -5.088983 -23.457805 -5.182676
          CHANNELS 3 Zrotation Xrotation Yrotation
          JOINT WristLeft
          {
            OFFSET 5.409509 -23.321651 -6.742352
            CHANNELS 3 Zrotation Xrotation Yrotation
            JOINT HandLeft
            {
              OFFSET 3.879670 -7.763488 -0.239051
              CHANNELS 3 Zrotation Xrotation Yrotation
              JOINT HandTipLeft
              {
                OFFSET 1.947655 -5.636293 -2.786468
                CHANNELS 3 Zrotation Xrotation Yrotation
                End Site
                {
                  OFFSET 0 0 0
                }
              }
              JOINT ThumbLeft
              {
                OFFSET -3.025753 -1.089592 2.224990
                CHANNELS 3 Zrotation Xrotation Yrotation
                End Site
                {
                  OFFSET 0 0 0
                }
              }
            }
          }
        }
      }
      JOINT ShoulderRight
      {
        OFFSET 14.987604 -4.829373 9.561558
        CHANNELS 3 Zrotation Xrotation Yrotation
        JOINT ElbowRight
        {
          OFFSET 1.734597 -27.393382 2.989529
          CHANNELS 3 Zrotation Xrotation Yrotation
          JOINT WristRight
          {
            OFFSET 1.891656 -22.471284 -7.218387
            CHANNELS 3 Zrotation Xrotation Yrotation
            JOINT HandRight
            {
              OFFSET -1.375365 -6.012351 -3.155186
              CHANNELS 3 Zrotation Xrotation Yrotation
              JOINT HandTipRight
              {
                OFFSET -0.901704 -7.833020 -1.083554
                CHANNELS 3 Zrotation Xrotation Yrotation
                End Site
                {
                  OFFSET 0 0 0
                }
              }
              JOINT ThumbRight
              {
                OFFSET 2.831059 -0.205626 -3.978426
                CHANNELS 3 Zrotation Xrotation Yrotation
                End Site
                {
                  OFFSET 0 0 0
                }
              }
            }
          }
        }
      }
    }
  }
  JOINT HipLeft
  {
    OFFSET -5.136609 1.619992 -7.488132
    CHANNELS 3 Zrotation Xrotation Yrotation
    JOINT KneeLeft
    {
      OFFSET -9.604795 -32.117036 -3.095210
      CHANNELS 3 Zrotation Xrotation Yrotation
      JOINT AnkleLeft
      {
        OFFSET -8.174125 -40.515644 7.320000
        CHANNELS 3 Zrotation Xrotation Yrotation
        JOINT FootLeft
        {
          OFFSET 2.604112 -5.887738 -3.988368
          CHANNELS 3 Zrotation Xrotation Yrotation
          End Site
          {
            OFFSET 0 0 0
          }
        }
      }
    }
  }
  JOINT HipRight
  {
    OFFSET 6.884727 0.085859 0.483639
    CHANNELS 3 Zrotation Xrotation Yrotation
    JOINT KneeRight
    {
      OFFSET -4.013981 -33.985862 1.973406
      CHANNELS 3 Zrotation Xrotation Yrotation
      JOINT AnkleRight
      {
        OFFSET -3.416324 -40.002770 8.377515
        CHANNELS 3 Zrotation Xrotation Yrotation
        JOINT FootRight
        {
          OFFSET 2.084773 -5.617055 -6.208681
          CHANNELS 3 Zrotation Xrotation Yrotation
          End Site
          {
            OFFSET 0 0 0
          }
        }
      }
    }
  }
}
MOTION
Frames: 16
Frame Time: 0.033333
-65.222563 78.634322 332.369545 -6.031738 -10.492207 -24.763606 -0.085724 -0.438921 24.107885 0.093524 -0.279577 -0.155190 4.085994 1.177382 3.459345 0.000000 0.000000 0.000000 -11.678446 -7.232840 8.304185 -19.883566 6.322461 6.646371 -15.112262 13.325383 1.004961 25.214072 -30.202418 -6.905432 0.000000 0.000000 0.000000 0.000000 0.000000 0.000000 3.702128 -6.912358 -1.665948 -8.201666 -0.540450 4.707407 2.476910 19.949995 3.244407 3.878116 -10.027700 -2.964266 0.000000 0.000000 0.000000 0.000000 0.000000 0.000000 1.565533 27.330896 19.127306 -0.026946 -4.040163 4.130808 0.712630 19.988824 6.914439 0.000000 0.000000 0.000000 1.036790 7.865926 24.445746 -9.755555 -1.462526 -2.110172 9.805322 11.777040 5.303479 0.000000 0.000000 0.000000
-64.983253 78.806856 329.886476 -5.391767 -10.013541 -25.104925 0.035034 -0.333712 24.541390 0.103741 -0.240139 -0.125293 6.033533 0.213563 3.611486 0.000000 0.000000 0.000000 -13.085253 -8.418323 8.377266 -20.188231 6.490690 6.882662 -15.870300 13.978136 1.804820 22.658473 -31.722962 -7.248368 0.000000 0.000000 0.000000 0.000000 0.000000 0.000000 3.727879 -7.000723 -1.529438 -7.853666 1.111934 4.375988 -4.636004 18.273231 7.917644 8.350204 -13.619972 -5.322408 0.000000 0.000000 0.000000 0.000000 0.000000 0.000000 1.757644 25.744618 19.704911 -0.102675 -3.498379 3.976086 0.845385 18.163223 5.731621 0.000000 0.000000 0.000000 0.929094 6.669551 24.938419 -9.901980 -2.684744 -2.106700 10.090166 11.629713 4.141172 0.000000 0.000000 0.000000
-65.101028 79.038024 327.594465 -5.061368 -9.747584 -25.432085 0.179516 -0.168530 24.910767 0.127187 -0.166080 -0.104562 7.535883 -0.031935 3.576257 0.000000 0.000000 0.000000 -14.101825 -8.948921 8.385675 -19.548222 6.431661 6.523554 -14.039057 14.634441 2.197273 21.902803 -31.656745 -7.368943 0.000000 0.000000 0.000000 0.000000 0.000000 0.000000 4.725866 -6.486656 -1.312768 -9.162603 2.182433 4.424492 -12.495655 19.964894 12.748056 17.325812 -30.446235 -6.071051 0.000000 0.000000 0.000000 0.000000 0.000000 0.000000 2.439903 25.014129 19.957094 -1.051662 -5.055536 4.204546 -0.349499 16.856062 5.247811 0.000000 0.000000 0.000000 1.162260 6.304822 25.307183 -10.193057 -4.474955 -2.101130 10.843223 12.806803 2.453012 0.000000 0.000000 0.000000
-65.030295 79.331551 325.020591 -4.530340 -9.260775 -25.355892 0.198155 -0.209650 24.911912 0.126057 -0.197048 -0.086996 8.917907 0.096430 3.406958 0.000000 0.000000 0.000000 -14.379383 -8.600708 8.165628 -19.567574 6.278934 6.605405 -11.656052 14.897877 2.081575 18.877650 -30.938470 -6.582429 0.000000 0.000000 0.000000 0.000000 0.000000 0.000000 5.834395 -6.197430 -1.110070 -10.618981 0.337247 4.079478 -15.854362 32.618086 14.612097 17.231387 -43.355860 -2.326569 0.000000 0.000000 0.000000 0.000000 0.000000 0.000000 2.890681 23.548111 20.072145 -1.540004 -6.423987 4.388414 -1.935643 17.088580 5.434279 0.000000 0.000000 0.000000 1.083226 5.409750 25.344650 -10.082566 -6.385080 -2.068499 11.549533 16.104073 1.330266 0.000000 0.000000 0.000000
-65.034873 79.606590 322.705179 -4.215789 -8.898446 -25.161492 0.206472 -0.230412 24.763662 0.138609 -0.206859 -0.077143 9.872033 0.684211 3.060922 0.000000 0.000000 0.000000 -13.876437 -7.590717 7.785232 -18.995887 6.678492 6.751342 -10.433446 14.073245 1.458324 17.064148 -29.775337 -5.766559 0.000000 0.000000 0.000000 0.000000 0.000000 0.000000 7.225740 -6.682198 -0.940803 -12.429570 -1.916226 3.867653 -16.325359 43.753132 15.057593 17.894475 -57.213125 2.855131 0.000000 0.000000 0.000000 0.000000 0.000000 0.000000 3.365082 22.149549 20.121030 -1.840426 -7.489168 4.498172 -4.473512 16.932830 6.359614 0.000000 0.000000 0.000000 1.206890 4.669162 25.226875 -9.912792 -7.965813 -2.005167 12.086279 20.516733 0.833301 0.000000 0.000000 0.000000
-64.925771 79.854843 320.590005 -3.878152 -8.871463 -24.542798 0.164487 -0.139755 24.185686 0.137027 -0.152675 -0.063136 10.814788 1.453573 2.662345 0.000000 0.000000 0.000000 -13.050892 -6.345379 7.345017 -18.909171 7.177065 7.187465 -8.168975 13.536096 1.115825 15.673436 -30.007492 -6.531202 0.000000 0.000000 0.000000 0.000000 0.000000 0.000000 8.231068 -7.298273 -0.809129 -14.366112 -4.650330 3.831635 -14.781040 53.297371 14.333565 19.502873 -64.508749 8.387458 0.000000 0.000000 0.000000 0.000000 0.000000 0.000000 3.561407 20.922259 19.817985 -1.675018 -7.706492 4.474883 -4.010806 19.688420 6.354295 0.000000 0.000000 0.000000 0.757279 4.528720 24.663092 -9.546247 -10.375018 -1.980185 14.453361 28.705004 -0.785949 0.000000 0.000000 0.000000
-64.886355 80.060799 318.429520 -3.827650 -8.384005 -24.180428 0.232324 -0.183634 23.838101 0.157385 -0.213153 -0.063820 11.570386 1.936876 2.336855 0.000000 0.000000 0.000000 -11.396545 -4.109842 6.572947 -18.471611 7.036887 7.260835 -8.073469 12.115096 0.631071 15.551950 -29.305193 -6.528030 0.000000 0.000000 0.000000 0.000000 0.000000 0.000000 9.289485 -9.238049 -0.665300 -16.611503 -5.431346 4.491217 -6.945535 55.376038 8.434711 16.548473 -62.100446 9.104309 0.000000 0.000000 0.000000 0.000000 0.000000 0.000000 4.232918 18.761810 19.974780 -1.431695 -6.904502 4.135943 -2.183706 24.226705 6.037311 0.000000 0.000000 0.000000 1.004920 4.532879 24.269606 -9.924235 -13.004405 -2.056368 18.544786 35.018635 -4.638483 0.000000 0.000000 0.000000
-64.935138 80.147972 316.391165 -4.093032 -7.884500 -23.886794 0.316826 -0.220442 23.526315 0.180262 -0.240017 -0.076783 12.398593 2.883717 1.781921 0.000000 0.000000 0.000000 -9.136149 -1.929044 5.658971 -17.683064 7.491967 7.446777 -8.108915 10.700234 0.563859 15.824468 -28.990136 -7.030379 0.000000 0.000000 0.000000 0.000000 0.000000 0.000000 8.668875 -8.524784 -0.679399 -16.155169 -6.286999 4.309204 -1.679713 48.344444 4.585686 13.937595 -54.761658 6.911463 0.000000 0.000000 0.000000 0.000000 0.000000 0.000000 5.070546 16.860457 20.140172 -1.178838 -6.303603 3.840778 1.250489 30.174270 4.809936 0.000000 0.000000 0.000000 1.787767 4.890177 23.872917 -10.554825 -15.077151 -2.128588 21.791294 38.409730 -8.087853 0.000000 0.000000 0.000000
-65.115415 80.198415 314.199714 -4.480583 -7.164887 -24.360951 0.418618 -0.294775 23.978975 0.191436 -0.282160 -0.097111 14.545015 3.295096 1.411039 0.000000 0.000000 0.000000 -6.309468 0.216850 4.531225 -17.082748 7.507356 7.478393 -8.307249 10.360753 1.631829 15.248222 -29.000669 -7.655443 0.000000 0.000000 0.000000 0.000000 0.000000 0.000000 8.833606 -7.614918 -0.589386 -15.960984 -6.362532 4.063503 -0.686616 39.090970 4.447957 11.599534 -41.454593 2.586439 0.000000 0.000000 0.000000 0.000000 0.000000 0.000000 6.189903 14.305818 21.271638 -0.821845 -4.858075 3.317248 5.831977 36.683200 2.528293 0.000000 0.000000 0.000000 2.823679 5.392280 24.213994 -11.567218 -17.118608 -2.278592 19.059071 35.914366 -6.060207 0.000000 0.000000 0.000000
-65.056108 80.250261 311.972589 -4.997671 -6.424909 -24.776466 0.479877 -0.325136 24.368870 0.199124 -0.295982 -0.124335 16.222480 3.635497 1.070172 0.000000 0.000000 0.000000 -3.314778 2.123104 3.356189 -16.437360 7.156479 7.330594 -8.568828 11.261860 3.713768 14.094180 -29.942119 -8.857255 0.000000 0.000000 0.000000 0.000000 0.000000 0.000000 8.716698 -6.572569 -0.519291 -14.721669 -5.329454 3.712241 0.316973 23.023147 4.674324 9.741722 -18.830767 -2.635295 0.000000 0.000000 0.000000 0.000000 0.000000 0.000000 7.482274 11.596580 22.430845 -0.509632 -3.512415 2.734479 7.899640 39.697420 1.154622 0.000000 0.000000 0.000000 4.098326 5.644974 24.517868 -11.841155 -16.618912 -2.166320 14.952871 31.028060 -2.813719 0.000000 0.000000 0.000000
-64.832624 80.424458 310.141240 -5.481974 -5.803217 -25.632518 0.546687 -0.337176 25.204035 0.226756 -0.308612 -0.148435 17.890777 4.073274 0.709881 0.000000 0.000000 0.000000 -0.370943 3.776923 2.200591 -15.994963 6.965996 7.299044 -7.018027 12.592569 5.766984 11.067338 -28.961524 -9.189456 0.000000 0.000000 0.000000 0.000000 0.000000 0.000000 8.275920 -5.621647 -0.486143 -13.461437 -4.375682 3.510311 3.604180 6.173586 3.980598 8.478399 3.587527 -6.349228 0.000000 0.000000 0.000000 0.000000 0.000000 0.000000 8.536631 8.536062 24.269205 0.238407 -1.324718 1.851970 9.842906 41.866905 -0.262430 0.000000 0.000000 0.000000 5.080486 6.171224 25.261243 -11.490219 -14.635422 -1.906284 9.295536 21.015301 0.922157 0.000000 0.000000 0.000000
-64.092220 80.520840 308.024688 -5.816747 -5.253573 -25.876031 0.539908 -0.299810 25.444481 0.236822 -0.287776 -0.167185 18.085525 4.310800 0.470862 0.000000 0.000000 0.000000 1.844216 5.117820 1.255802 -14.934860 6.369628 6.938993 -5.214466 14.409683 7.801024 9.743584 -28.092619 -9.812132 0.000000 0.000000 0.000000 0.000000 0.000000 0.000000 7.680019 -4.531206 -0.439174 -11.934592 -4.460441 3.077539 5.349131 -6.054045 4.620086 11.695270 21.611255 -11.292907 0.000000 0.000000 0.000000 0.000000 0.000000 0.000000 9.355834 6.037069 25.319598 0.466929 -0.406116 1.249186 9.851666 41.217840 -0.671151 0.000000 0.000000 0.000000 5.789098 6.345729 25.449619 -10.798186 -11.753935 -1.646226 7.929106 16.624563 1.313599 0.000000 0.000000 0.000000
-62.937852 80.477265 306.291443 -5.982205 -5.029730 -25.578826 0.481114 -0.257587 25.147103 0.236025 -0.258511 -0.177591 17.044119 4.729507 0.216384 0.000000 0.000000 0.000000 3.094819 5.927403 0.714340 -13.628162 5.823846 6.452637 -3.353451 18.321262 10.892795 6.652243 -29.383322 -11.865520 0.000000 0.000000 0.000000 0.000000 0.000000 0.000000 6.815001 -3.376929 -0.434344 -10.017756 -4.404892 2.647810 5.756970 -13.637131 5.611041 18.332055 31.582891 -17.762275 0.000000 0.000000 0.000000 0.000000 0.000000 0.000000 9.231483 5.407843 25.227860 0.071040 -2.285462 1.462964 10.474772 40.571884 -1.570920 0.000000 0.000000 0.000000 5.852456 6.775332 25.091644 -9.820209 -8.865248 -1.446856 8.320092 14.936030 0.588546 0.000000 0.000000 0.000000
-61.515491 80.261739 304.688846 -5.934780 -4.536448 -24.860704 0.508284 -0.404691 24.450364 0.206389 -0.268592 -0.181217 14.771853 4.742992 0.168162 0.000000 0.000000 0.000000 4.206082 6.862781 0.116629 -12.736941 5.557281 6.309952 -4.457024 20.732202 13.232197 7.491784 -30.320681 -12.668653 0.000000 0.000000 0.000000 0.000000 0.000000 0.000000 6.387160 -2.386815 -0.372654 -8.429978 -6.846851 1.781190 7.106361 -12.829616 4.900315 17.519232 43.203124 -19.334208 0.000000 0.000000 0.000000 0.000000 0.000000 0.000000 8.688948 5.446756 24.422905 -0.945457 -6.008646 2.091412 6.404037 37.595734 0.964158 0.000000 0.000000 0.000000 5.834918 6.839630 24.365645 -9.018804 -6.191604 -1.335264 10.400637 16.555123 -0.801708 0.000000 0.000000 0.000000
-60.168152 79.732082 303.160396 -6.160237 -4.785871 -23.700916 0.299851 -0.198651 23.273711 0.176515 -0.167172 -0.193285 11.868758 4.797331 0.165464 0.000000 0.000000 0.000000 3.985037 6.471276 0.369237 -11.377182 5.723228 5.882589 -4.579521 21.302110 13.636539 9.388253 -28.346825 -11.559635 0.000000 0.000000 0.000000 0.000000 0.000000 0.000000 6.115843 -3.116005 -0.441389 -6.587497 -6.842698 1.406724 6.110619 -11.030869 5.137986 21.166256 40.120309 -21.069557 0.000000 0.000000 0.000000 0.000000 0.000000 0.000000 8.024913 7.741544 22.510158 -1.731344 -10.776347 3.172579 2.368686 34.218114 3.022178 0.000000 0.000000 0.000000 6.136715 6.688612 23.187714 -8.460364 -3.200949 -1.293228 13.994698 20.827250 -2.900702 0.000000 0.000000 0.000000
-58.955277 79.226605 301.939855 -6.530542 -5.633241 -23.349672 0.065967 -0.074943 22.864130 0.163226 -0.196244 -0.211519 8.971986 6.009603 -0.076698 0.000000 0.000000 0.000000 2.661655 5.617643 1.255694 -9.716506 6.293600 5.213365 -5.425693 20.300587 12.784035 11.134263 -25.622545 -9.793964 0.000000 0.000000 0.000000 0.000000 0.000000 0.000000 5.698091 -1.446041 -0.487888 -4.799978 -9.582486 0.754645 5.154443 -10.760322 6.237071 20.873009 33.477665 -19.883955 0.000000 0.000000 0.000000 0.000000 0.000000 0.000000 7.543013 11.821003 20.934984 -2.679163 -14.738362 4.232823 -0.999478 30.438804 4.798169 0.000000 0.000000 0.000000 5.958813 7.415149 22.726286 -8.235215 -2.257938 -1.319562 18.892738 27.582342 -5.892151 0.000000 0.000000 0.000000
